<svg width="20" height="20" viewBox="0 0 20 20" fill="none" xmlns="http://www.w3.org/2000/svg">
<path d="M10 20C15.5228 20 20 15.5228 20 10C20 4.47715 15.5228 0 10 0C4.47715 0 0 4.47715 0 10C0 15.5228 4.47715 20 10 20Z" fill="black"/>
<path d="M5.66338 9.30693L5.16833 8.92673L8.4119 4.72079L11.5723 7.77822L14.5703 5.38218L14.9584 5.86931L11.5327 8.6099L8.47923 5.65545L5.66338 9.30693Z" fill="#CED5E0"/>
<path d="M1.71887 15.6079C3.51689 18.2574 6.55452 20 10.0001 20C13.4456 20 16.4832 18.2574 18.2813 15.6079H1.71887Z" fill="#2B3B4E"/>
<path d="M15.6356 15.2634H13.6831C13.6356 15.2634 13.6 15.2277 13.6 15.1802V8.10297C13.6 8.05544 13.6356 8.0198 13.6831 8.0198H15.6356C15.6831 8.0198 15.7188 8.05544 15.7188 8.10297V15.1802C15.7188 15.2238 15.6831 15.2634 15.6356 15.2634Z" fill="white"/>
<path d="M12.5306 15.2634H10.5782C10.5306 15.2634 10.495 15.2277 10.495 15.1802V10.1822C10.495 10.1347 10.5306 10.099 10.5782 10.099H12.5306C12.5782 10.099 12.6138 10.1347 12.6138 10.1822V15.1802C12.6098 15.2238 12.5742 15.2634 12.5306 15.2634Z" fill="white"/>
<path d="M9.42175 15.2634H7.46928C7.42175 15.2634 7.38611 15.2277 7.38611 15.1802V7.65149C7.38611 7.60396 7.42175 7.56832 7.46928 7.56832H9.42175C9.46928 7.56832 9.50492 7.60396 9.50492 7.65149V15.1802C9.50492 15.2238 9.46928 15.2634 9.42175 15.2634Z" fill="white"/>
<path d="M6.31677 15.2634H4.3643C4.31677 15.2634 4.28113 15.2277 4.28113 15.1802V11.4693C4.28113 11.4218 4.31677 11.3861 4.3643 11.3861H6.31677C6.3643 11.3861 6.39994 11.4218 6.39994 11.4693V15.1802C6.39994 15.2238 6.36034 15.2634 6.31677 15.2634Z" fill="white"/>
<path d="M17.097 14.9307H2.90295V15.6079H17.097V14.9307Z" fill="#CED5E0"/>
<path d="M14.7643 6.79208C15.4074 6.79208 15.9287 6.27078 15.9287 5.62772C15.9287 4.98467 15.4074 4.46337 14.7643 4.46337C14.1213 4.46337 13.6 4.98467 13.6 5.62772C13.6 6.27078 14.1213 6.79208 14.7643 6.79208Z" fill="#E6E9EE"/>
<path d="M14.7644 6.30495C15.1384 6.30495 15.4416 6.00175 15.4416 5.62772C15.4416 5.2537 15.1384 4.95049 14.7644 4.95049C14.3904 4.95049 14.0872 5.2537 14.0872 5.62772C14.0872 6.00175 14.3904 6.30495 14.7644 6.30495Z" fill="white"/>
<path d="M11.5524 9.24357C12.1955 9.24357 12.7168 8.72227 12.7168 8.07921C12.7168 7.43615 12.1955 6.91485 11.5524 6.91485C10.9094 6.91485 10.3881 7.43615 10.3881 8.07921C10.3881 8.72227 10.9094 9.24357 11.5524 9.24357Z" fill="#E6E9EE"/>
<path d="M11.5525 8.75644C11.9265 8.75644 12.2297 8.45323 12.2297 8.07921C12.2297 7.70519 11.9265 7.40198 11.5525 7.40198C11.1784 7.40198 10.8752 7.70519 10.8752 8.07921C10.8752 8.45323 11.1784 8.75644 11.5525 8.75644Z" fill="white"/>
<path d="M8.44756 6.35247C9.09062 6.35247 9.61192 5.83117 9.61192 5.18812C9.61192 4.54506 9.09062 4.02376 8.44756 4.02376C7.8045 4.02376 7.2832 4.54506 7.2832 5.18812C7.2832 5.83117 7.8045 6.35247 8.44756 6.35247Z" fill="#E6E9EE"/>
<path d="M8.44749 5.86534C8.82151 5.86534 9.12472 5.56214 9.12472 5.18812C9.12472 4.81409 8.82151 4.51089 8.44749 4.51089C8.07347 4.51089 7.77026 4.81409 7.77026 5.18812C7.77026 5.56214 8.07347 5.86534 8.44749 5.86534Z" fill="white"/>
<path d="M5.33867 10.2812C5.98173 10.2812 6.50303 9.75989 6.50303 9.11684C6.50303 8.47378 5.98173 7.95248 5.33867 7.95248C4.69562 7.95248 4.17432 8.47378 4.17432 9.11684C4.17432 9.75989 4.69562 10.2812 5.33867 10.2812Z" fill="#E6E9EE"/>
<path d="M5.3386 9.79406C5.71263 9.79406 6.01583 9.49086 6.01583 9.11684C6.01583 8.74281 5.71263 8.43961 5.3386 8.43961C4.96458 8.43961 4.66138 8.74281 4.66138 9.11684C4.66138 9.49086 4.96458 9.79406 5.3386 9.79406Z" fill="white"/>
</svg>
