<svg width="22" height="18" viewBox="0 0 22 18" fill="none" xmlns="http://www.w3.org/2000/svg">
<path d="M21.5618 1.45199e-08H0.438238C0.196195 1.45199e-08 0 0.197495 0 0.441141V14.3938C0 14.6375 0.196195 14.835 0.438238 14.835H8.16595V17.1177H6.61139C6.36934 17.1177 6.17315 17.3152 6.17315 17.5588C6.17315 17.8025 6.36934 18 6.61139 18H15.3886V18C15.6307 18 15.8269 17.8025 15.8269 17.5589C15.8269 17.3152 15.6307 17.1177 15.3886 17.1177H13.834V14.835H21.5618C21.8038 14.835 22 14.6375 22 14.3939V0.441141C22 0.197495 21.8038 1.45199e-08 21.5618 1.45199e-08ZM12.9576 17.1178H9.04243V14.8351H12.9576V17.1178ZM21.1235 13.9527H0.876477V0.882281H21.1235V13.9527H21.1235Z" fill="black"/>
<path d="M10.2549 1.91417H2.39551C2.15347 1.91417 1.95728 2.11166 1.95728 2.35531V8.05688C1.95728 8.30052 2.15347 8.49802 2.39551 8.49802H10.2549C10.4969 8.49802 10.6931 8.30052 10.6931 8.05688V2.35535C10.6932 2.11171 10.4969 1.91417 10.2549 1.91417ZM3.4739 7.61574L4.86665 6.21377L6.25939 7.61574H3.4739V7.61574ZM9.81665 7.61578H7.49354V7.61574C7.48233 7.60116 7.47047 7.58702 7.45719 7.57365L6.70429 6.81577L8.40942 5.09934L9.81669 6.51593V7.61578H9.81665ZM9.81665 5.26812L8.71922 4.16347C8.54808 3.99119 8.27059 3.99124 8.09944 4.16347L6.08442 6.19184L5.17649 5.27789C5.00535 5.10562 4.72786 5.10562 4.55667 5.27789L2.83367 7.01231V2.79645H9.81665V5.26812Z" fill="black"/>
<path d="M19.9917 2.70869L19.1984 1.91011C18.7946 1.50366 18.1377 1.5037 17.7339 1.91011L12.0472 7.63456C11.9943 7.6878 11.9578 7.7513 11.9376 7.81869L11.9376 7.81873L11.9375 7.81907C11.9372 7.8202 11.9369 7.82128 11.9365 7.82236L11.321 9.86984H2.39551C2.15347 9.86984 1.95728 10.0673 1.95728 10.311C1.95728 10.5546 2.15347 10.7521 2.39551 10.7521H11.6458C11.646 10.7521 11.6461 10.7521 11.6463 10.7521C11.6463 10.7521 11.6464 10.7521 11.6466 10.7521H11.66C11.7242 10.7521 11.7851 10.7379 11.8401 10.7128L14.122 10.0176L14.1221 10.0176C14.1905 9.99675 14.2535 9.95916 14.3049 9.90734L19.9917 4.1829C20.1873 3.98601 20.2951 3.7242 20.2951 3.44577C20.2951 3.16731 20.1873 2.90554 19.9917 2.70869ZM12.3028 9.65003L12.5645 8.7793L13.1678 9.38653L12.3028 9.65003ZM13.9951 8.97152L12.9768 7.9465L17.4257 3.46814L18.444 4.49315L13.9951 8.97152ZM19.372 3.55905L19.0637 3.86931L18.0455 2.84425L18.3537 2.53399C18.4157 2.47154 18.5167 2.47154 18.5787 2.53399L19.372 3.33258C19.4125 3.37337 19.4186 3.42103 19.4186 3.44582C19.4186 3.4706 19.4126 3.51827 19.372 3.55905Z" fill="black"/>
<path d="M17.7052 11.9913H2.39551C2.15347 11.9913 1.95728 12.1888 1.95728 12.4325C1.95728 12.6761 2.15347 12.8736 2.39551 12.8736H17.7052C17.9472 12.8736 18.1434 12.6761 18.1434 12.4325C18.1434 12.1888 17.9472 11.9913 17.7052 11.9913Z" fill="black"/>
<path d="M19.651 11.9913H19.4143C19.1723 11.9913 18.9761 12.1888 18.9761 12.4325C18.9761 12.6761 19.1723 12.8736 19.4143 12.8736H19.651C19.8931 12.8736 20.0893 12.6761 20.0893 12.4325C20.0893 12.1888 19.8931 11.9913 19.651 11.9913Z" fill="black"/>
</svg>
