<svg width="20" height="21" viewBox="0 0 20 21" fill="none" xmlns="http://www.w3.org/2000/svg">
<path d="M2.82695 4.37486C3.05728 4.55212 3.38631 4.50751 3.56212 4.2753C5.1092 2.23067 7.45567 1.05813 9.99994 1.05813C12.5442 1.05813 14.8907 2.23074 16.4378 4.2753C16.541 4.4117 16.6971 4.48332 16.8551 4.48332C16.966 4.48332 17.078 4.44797 17.1729 4.37486C17.4031 4.19753 17.4473 3.86556 17.2716 3.63328C15.5243 1.32427 12.8739 0 9.99994 0C7.12594 0 4.47554 1.32427 2.72832 3.63328C2.55259 3.86556 2.59675 4.19753 2.82695 4.37486Z" fill="black"/>
<path d="M15.5752 7.19699C15.5752 8.10805 16.3101 8.84935 17.2133 8.84935C18.1165 8.84935 18.8513 8.10805 18.8513 7.19699C18.8513 6.28593 18.1165 5.54464 17.2133 5.54464C16.3101 5.54464 15.5752 6.28586 15.5752 7.19699V7.19699Z" fill="black"/>
<path d="M18.8897 9.39768C18.8859 9.39641 18.4732 9.26864 18.4732 9.26864C18.3238 9.22261 18.1614 9.25096 18.0363 9.34543L17.2133 9.96701L16.3903 9.34543C16.2651 9.25089 16.1027 9.22254 15.9534 9.26864C15.9534 9.26864 15.5407 9.39641 15.5369 9.39768C14.8728 9.62104 14.4266 10.2455 14.4266 10.9515V13.4495C14.4266 13.5459 14.4545 13.6402 14.5071 13.7206L15.3376 14.9956V18.3437C15.3376 18.6164 15.5567 18.8374 15.8271 18.8374H18.5996C18.87 18.8374 19.0891 18.6164 19.0891 18.3437V14.9956L19.9196 13.7206C19.9721 13.6401 20 13.5459 20 13.4495V10.9515C20 10.2455 19.5538 9.62104 18.8897 9.39768V9.39768Z" fill="black"/>
<path d="M2.7867 8.84935C3.68989 8.84935 4.42478 8.10805 4.42478 7.19699C4.42478 6.28593 3.68989 5.54464 2.7867 5.54464C1.88352 5.54464 1.14856 6.28586 1.14856 7.19699C1.14856 8.10812 1.88345 8.84935 2.7867 8.84935V8.84935Z" fill="black"/>
<path d="M4.46308 9.39768C4.4593 9.39641 4.04657 9.26864 4.04657 9.26864C3.89706 9.22261 3.73485 9.25096 3.60966 9.34543L2.78667 9.96701L1.96367 9.34543C1.83855 9.25089 1.67607 9.22254 1.52676 9.26864C1.52676 9.26864 1.11404 9.39641 1.11025 9.39768C0.446161 9.62104 1.57763e-08 10.2455 1.57763e-08 10.9515V13.4495C1.57763e-08 13.5459 0.0278982 13.6402 0.0804702 13.7206L0.910967 14.9956V18.3437C0.910967 18.6164 1.13009 18.8374 1.40045 18.8374H4.17288C4.44324 18.8374 4.66236 18.6164 4.66236 18.3437V14.9956L5.49286 13.7206C5.54536 13.6401 5.57333 13.5459 5.57333 13.4495V10.9515C5.57333 10.2455 5.1271 9.62104 4.46308 9.39768Z" fill="black"/>
<path d="M12.1128 4.86825C12.1128 3.6931 11.1649 2.737 9.99992 2.737C8.83492 2.737 7.88709 3.6931 7.88709 4.86825C7.88709 6.04347 8.83492 6.9995 9.99992 6.9995C11.1649 6.9995 12.1128 6.04347 12.1128 4.86825Z" fill="black"/>
<path d="M12.3206 8.03239L12.3171 8.03126L11.7141 7.8446C11.619 7.81511 11.5173 7.86588 11.4831 7.96056L10.2151 11.4701C10.1419 11.6725 9.85808 11.6725 9.7849 11.4701L8.51686 7.96056C8.48924 7.88412 8.41774 7.83618 8.34106 7.83618C8.3229 7.83618 7.68356 8.03098 7.68356 8.03098C6.9132 8.28991 6.39856 9.01027 6.39856 9.82482V13.5374C6.39856 13.5742 6.40928 13.6103 6.42933 13.6411L7.75246 15.6721V20.8111C7.75246 20.9154 7.8363 21 7.93976 21H12.0602C12.1637 21 12.2475 20.9154 12.2475 20.8111V15.6721L13.5706 13.6411C13.5907 13.6103 13.6014 13.5742 13.6014 13.5374V9.81506C13.6013 9.00405 13.0847 8.28489 12.3206 8.03239V8.03239Z" fill="black"/>
<path d="M10.4955 7.9585C10.4431 7.90095 10.3665 7.87196 10.289 7.87196H9.71101C9.63355 7.87196 9.55694 7.90095 9.50451 7.9585C9.42341 8.04766 9.41163 8.17642 9.46918 8.27704L9.77809 8.74681L9.63348 9.97747L9.91828 10.7417C9.94604 10.8185 10.0538 10.8185 10.0816 10.7417L10.3664 9.97747L10.2218 8.74681L10.5307 8.27704C10.5883 8.17642 10.5766 8.04766 10.4955 7.9585V7.9585Z" fill="black"/>
</svg>
