<svg width="19" height="16" viewBox="0 0 19 16" fill="none" xmlns="http://www.w3.org/2000/svg">
<path d="M18.3448 -3.61227e-08H0.655166C0.293313 -3.61227e-08 0 0.292367 0 0.653053V11.102H19V0.653053C19 0.292367 18.7067 -3.61227e-08 18.3448 -3.61227e-08ZM18.0172 10.1224H0.982768V0.979598H18.0172V10.1224Z" fill="#030104"/>
<path d="M7.53443 5.06123C7.62498 5.06123 7.69823 5.13425 7.69823 5.2245H8.1896V4.73472H7.53443C7.44389 4.73472 7.37063 4.6617 7.37063 4.57145C7.37063 4.48119 7.44389 4.40817 7.53443 4.40817H8.1896V2.28574H5.24133V5.2245H7.37063C7.37067 5.13425 7.44392 5.06123 7.53443 5.06123Z" fill="#030104"/>
<path d="M0.982788 10.1224H18.0173V0.979599H0.982788V10.1224ZM8.18965 9.30609H7.53449C7.44394 9.30609 7.37068 9.23307 7.37068 9.14282C7.37068 9.05256 7.44394 8.97954 7.53449 8.97954H8.18965C8.2802 8.97954 8.35345 9.05256 8.35345 9.14282C8.35345 9.23307 8.28016 9.30609 8.18965 9.30609ZM7.53445 7.67344C7.625 7.67344 7.69825 7.74645 7.69825 7.83671V8.48976C7.69825 8.58002 7.625 8.65304 7.53445 8.65304C7.4439 8.65304 7.37065 8.58002 7.37065 8.48976V7.83671C7.37069 7.74645 7.44394 7.67344 7.53445 7.67344ZM7.37068 7.18366V6.5306C7.37068 6.44035 7.44394 6.36733 7.53449 6.36733C7.62503 6.36733 7.69829 6.44035 7.69829 6.5306V7.18366C7.69829 7.27391 7.62503 7.34693 7.53449 7.34693C7.44394 7.34693 7.37068 7.27391 7.37068 7.18366ZM9.49998 9.30609H8.84482C8.75427 9.30609 8.68102 9.23307 8.68102 9.14282C8.68102 9.05256 8.75427 8.97954 8.84482 8.97954H9.49998C9.59053 8.97954 9.66378 9.05256 9.66378 9.14282C9.66378 9.23307 9.59053 9.30609 9.49998 9.30609ZM12.2844 8.48976C12.2844 8.58002 12.2112 8.65304 12.1206 8.65304C12.0301 8.65304 11.9568 8.58002 11.9568 8.48976V7.83671C11.9568 7.74645 12.0301 7.67344 12.1206 7.67344C12.2112 7.67344 12.2844 7.74645 12.2844 7.83671V8.48976ZM12.2844 7.18366C12.2844 7.27391 12.2112 7.34693 12.1206 7.34693C12.0301 7.34693 11.9568 7.27391 11.9568 7.18366V6.5306C11.9568 6.44035 12.0301 6.36733 12.1206 6.36733C12.2112 6.36733 12.2844 6.44035 12.2844 6.5306V7.18366ZM12.2844 5.87755C12.2844 5.96781 12.2112 6.04082 12.1206 6.04082C12.0301 6.04082 11.9568 5.96781 11.9568 5.87755V5.2245C11.9568 5.13424 12.0301 5.06123 12.1206 5.06123C12.2112 5.06123 12.2844 5.13424 12.2844 5.2245V5.87755ZM13.7587 6.20406V3.91836V1.9592C13.7587 1.77887 13.9054 1.63265 14.0863 1.63265H17.0345C17.2154 1.63265 17.3621 1.77887 17.3621 1.9592V3.91839V6.2041V9.14285C17.3621 9.32318 17.2154 9.4694 17.0345 9.4694H14.0863C13.9054 9.4694 13.7587 9.32318 13.7587 9.14285V6.20406ZM11.4655 4.40817H12.1206C12.2112 4.40817 12.2844 4.48119 12.2844 4.57145C12.2844 4.6617 12.2112 4.73472 12.1206 4.73472H11.4655C11.3749 4.73472 11.3017 4.6617 11.3017 4.57145C11.3017 4.48119 11.375 4.40817 11.4655 4.40817ZM11.4655 8.97958H12.1206C12.2112 8.97958 12.2844 9.0526 12.2844 9.14285C12.2844 9.23311 12.2112 9.30613 12.1206 9.30613H11.4655C11.3749 9.30613 11.3017 9.23311 11.3017 9.14285C11.3017 9.0526 11.375 8.97958 11.4655 8.97958ZM10.1551 4.40817H10.8103C10.9009 4.40817 10.9741 4.48119 10.9741 4.57145C10.9741 4.6617 10.9009 4.73472 10.8103 4.73472H10.1551C10.0646 4.73472 9.99135 4.6617 9.99135 4.57145C9.99135 4.48119 10.0646 4.40817 10.1551 4.40817ZM10.1551 8.97958H10.8103C10.9009 8.97958 10.9741 9.0526 10.9741 9.14285C10.9741 9.23311 10.9009 9.30613 10.8103 9.30613H10.1551C10.0646 9.30613 9.99135 9.23311 9.99135 9.14285C9.99135 9.0526 10.0646 8.97958 10.1551 8.97958ZM4.58618 1.9592C4.58618 1.77872 4.73288 1.63265 4.91378 1.63265H8.51722C8.69812 1.63265 8.84482 1.77869 8.84482 1.9592V4.40817H9.49998C9.59053 4.40817 9.66378 4.48119 9.66378 4.57145C9.66378 4.6617 9.59053 4.73472 9.49998 4.73472H8.84482V5.55104C8.84482 5.58644 8.83899 5.62047 8.82856 5.65236L9.6882 6.42004C9.75942 6.48363 9.74086 6.59933 9.65332 6.63769L9.32757 6.78021L9.61851 7.44074C9.65484 7.5233 9.61706 7.61962 9.53435 7.65594C9.51293 7.66519 9.49052 7.66966 9.46863 7.66966C9.40543 7.66966 9.34546 7.6333 9.31844 7.57209L9.02747 6.91149L8.70161 7.05405C8.61407 7.09237 8.51603 7.02763 8.51729 6.93235L8.53106 5.87689C8.52642 5.87711 8.52189 5.87759 8.51722 5.87759H7.69825C7.69825 5.96784 7.625 6.04086 7.53445 6.04086C7.4439 6.04086 7.37065 5.96784 7.37065 5.87759H4.91375C4.73284 5.87759 4.58615 5.73155 4.58615 5.55104V1.9592H4.58618ZM1.63795 1.9592C1.63795 1.77887 1.78465 1.63265 1.96556 1.63265H2.94832C3.12923 1.63265 3.27592 1.77887 3.27592 1.9592V9.14285C3.27592 9.32318 3.12923 9.4694 2.94832 9.4694H1.96556C1.78465 9.4694 1.63795 9.32318 1.63795 9.14285V1.9592V1.9592Z" fill="#030104"/>
<path d="M0 12.4081C0 12.7688 0.293313 13.0612 0.655166 13.0612H6.8793H12.1207H18.3448C18.7067 13.0612 19 12.7688 19 12.4081V11.102H0V12.4081ZM9.5 11.5918C9.77138 11.5918 9.99137 11.8111 9.99137 12.0816C9.99137 12.352 9.77134 12.5714 9.5 12.5714C9.22862 12.5714 9.00863 12.352 9.00863 12.0816C9.00863 11.8111 9.22862 11.5918 9.5 11.5918Z" fill="#030104"/>
<path d="M6.59265 15.3469H12.4073L12.2026 13.7143H6.79738L6.59265 15.3469Z" fill="#030104"/>
<path d="M6.55172 15.3469C6.37081 15.3469 6.22412 15.4931 6.22412 15.6735C6.22412 15.8538 6.37081 16 6.55172 16H12.4483C12.6292 16 12.7759 15.8538 12.7759 15.6735C12.7759 15.4931 12.6292 15.3469 12.4483 15.3469H12.4074H6.59269H6.55172Z" fill="#030104"/>
<path d="M6.79736 13.7143H12.2026L12.1207 13.0612H6.87926L6.79736 13.7143Z" fill="#030104"/>
<path d="M9.50003 12.5714C9.77141 12.5714 9.9914 12.3521 9.9914 12.0816C9.9914 11.8111 9.77141 11.5918 9.50003 11.5918C9.22866 11.5918 9.00867 11.8111 9.00867 12.0816C9.00867 12.3521 9.22866 12.5714 9.50003 12.5714Z" fill="#030104"/>
<path d="M1.96554 9.46935H2.94831C3.12922 9.46935 3.27591 9.32313 3.27591 9.14281V1.95919C3.27591 1.77886 3.12922 1.63264 2.94831 1.63264H1.96554C1.78463 1.63264 1.63794 1.77886 1.63794 1.95919V9.14285C1.63794 9.32317 1.7846 9.46935 1.96554 9.46935ZM2.29311 2.2857H2.62071C2.80162 2.2857 2.94831 2.43192 2.94831 2.61224C2.94831 2.79257 2.80162 2.93879 2.62071 2.93879H2.29311C2.1122 2.93879 1.9655 2.79257 1.9655 2.61224C1.96554 2.43192 2.1122 2.2857 2.29311 2.2857ZM2.29311 3.2653H2.62071C2.80162 3.2653 2.94831 3.41152 2.94831 3.59184C2.94831 3.77217 2.80162 3.91839 2.62071 3.91839H2.29311C2.1122 3.91839 1.9655 3.77217 1.9655 3.59184C1.96554 3.41152 2.1122 3.2653 2.29311 3.2653ZM2.29311 4.24489H2.62071C2.80162 4.24489 2.94831 4.39111 2.94831 4.57144C2.94831 4.75176 2.80162 4.89798 2.62071 4.89798H2.29311C2.1122 4.89798 1.9655 4.75176 1.9655 4.57144C1.9655 4.39111 2.1122 4.24489 2.29311 4.24489ZM2.29311 5.22449H2.62071C2.80162 5.22449 2.94831 5.37071 2.94831 5.55104C2.94831 5.73136 2.80162 5.87758 2.62071 5.87758H2.29311C2.1122 5.87758 1.9655 5.73136 1.9655 5.55104C1.9655 5.37071 2.1122 5.22449 2.29311 5.22449ZM2.29311 6.20405H2.62071C2.80162 6.20405 2.94831 6.35027 2.94831 6.5306C2.94831 6.71092 2.80162 6.85714 2.62071 6.85714H2.29311C2.1122 6.85714 1.9655 6.71092 1.9655 6.5306C1.9655 6.35027 2.1122 6.20405 2.29311 6.20405ZM1.96554 7.8367C1.96554 7.65638 2.11223 7.51016 2.29314 7.51016H2.62074C2.80165 7.51016 2.94835 7.65638 2.94835 7.8367V8.48976C2.94835 8.67008 2.80165 8.8163 2.62074 8.8163H2.29314C2.11223 8.8163 1.96554 8.67008 1.96554 8.48976V7.8367V7.8367Z" fill="#030104"/>
<path d="M2.29306 2.93876H2.62066C2.80157 2.93876 2.94826 2.79254 2.94826 2.61221C2.94826 2.43189 2.80157 2.28567 2.62066 2.28567H2.29306C2.11215 2.28567 1.96545 2.43189 1.96545 2.61221C1.96549 2.79257 2.11215 2.93876 2.29306 2.93876Z" fill="#030104"/>
<path d="M2.29306 3.91836H2.62066C2.80157 3.91836 2.94826 3.77214 2.94826 3.59181C2.94826 3.41149 2.80157 3.26527 2.62066 3.26527H2.29306C2.11215 3.26527 1.96545 3.41149 1.96545 3.59181C1.96549 3.77217 2.11215 3.91836 2.29306 3.91836Z" fill="#030104"/>
<path d="M2.29306 4.89796H2.62066C2.80157 4.89796 2.94826 4.75174 2.94826 4.57141C2.94826 4.39109 2.80157 4.24487 2.62066 4.24487H2.29306C2.11215 4.24487 1.96545 4.39109 1.96545 4.57141C1.96545 4.75174 2.11215 4.89796 2.29306 4.89796Z" fill="#030104"/>
<path d="M2.29306 5.87756H2.62066C2.80157 5.87756 2.94826 5.73134 2.94826 5.55102C2.94826 5.37069 2.80157 5.22447 2.62066 5.22447H2.29306C2.11215 5.22447 1.96545 5.37069 1.96545 5.55102C1.96545 5.73134 2.11215 5.87756 2.29306 5.87756Z" fill="#030104"/>
<path d="M2.29306 6.85712H2.62066C2.80157 6.85712 2.94826 6.7109 2.94826 6.53058C2.94826 6.35025 2.80157 6.20403 2.62066 6.20403H2.29306C2.11215 6.20403 1.96545 6.35025 1.96545 6.53058C1.96545 6.7109 2.11215 6.85712 2.29306 6.85712Z" fill="#030104"/>
<path d="M2.29306 8.81631H2.62066C2.80157 8.81631 2.94826 8.67008 2.94826 8.48976V7.83671C2.94826 7.65638 2.80157 7.51016 2.62066 7.51016H2.29306C2.11215 7.51016 1.96545 7.65638 1.96545 7.83671V8.48976C1.96549 8.67008 2.11211 8.81631 2.29306 8.81631Z" fill="#030104"/>
<path d="M17.362 1.95919C17.362 1.77886 17.2153 1.63264 17.0344 1.63264H14.0861C13.9052 1.63264 13.7585 1.77886 13.7585 1.95919V3.91839H17.362V1.95919H17.362ZM16.8706 3.59184H15.5603H15.2327H14.2499C14.1595 3.59184 14.0861 3.51875 14.0861 3.42857C14.0861 3.33839 14.1595 3.2653 14.2499 3.2653H15.2327H15.5603H16.8706C16.9611 3.2653 17.0344 3.33839 17.0344 3.42857C17.0344 3.51875 16.9611 3.59184 16.8706 3.59184ZM16.8706 2.93875H16.543H16.2154H14.2499C14.1595 2.93875 14.0861 2.86566 14.0861 2.77548C14.0861 2.6853 14.1595 2.61221 14.2499 2.61221H16.2155H16.5431H16.8707C16.9612 2.61221 17.0345 2.6853 17.0345 2.77548C17.0345 2.86566 16.9611 2.93875 16.8706 2.93875ZM16.8706 2.2857H14.9051H14.5775H14.2499C14.1595 2.2857 14.0861 2.21261 14.0861 2.12242C14.0861 2.03224 14.1595 1.95915 14.2499 1.95915H14.5775H14.9052H16.8707C16.9612 1.95915 17.0345 2.03224 17.0345 2.12242C17.0345 2.21261 16.9611 2.2857 16.8706 2.2857Z" fill="#030104"/>
<path d="M14.0861 9.46936H17.0344C17.2153 9.46936 17.362 9.32314 17.362 9.14281V6.20406H13.7585V9.14281C13.7585 9.32317 13.9052 9.46936 14.0861 9.46936ZM15.5602 6.5306H16.8706C16.961 6.5306 17.0344 6.60369 17.0344 6.69387C17.0344 6.78405 16.961 6.85715 16.8706 6.85715H15.5602C15.4698 6.85715 15.3964 6.78405 15.3964 6.69387C15.3964 6.60369 15.4698 6.5306 15.5602 6.5306ZM15.5602 7.18365H16.8706C16.961 7.18365 17.0344 7.25675 17.0344 7.34693C17.0344 7.43711 16.961 7.5102 16.8706 7.5102H15.5602C15.4698 7.5102 15.3964 7.43711 15.3964 7.34693C15.3965 7.25675 15.4698 7.18365 15.5602 7.18365ZM15.5602 7.83671H16.8706C16.961 7.83671 17.0344 7.9098 17.0344 7.99998C17.0344 8.09016 16.961 8.16325 16.8706 8.16325H15.5602C15.4698 8.16325 15.3964 8.09016 15.3964 7.99998C15.3965 7.9098 15.4698 7.83671 15.5602 7.83671ZM15.5602 8.48976H16.8706C16.961 8.48976 17.0344 8.56285 17.0344 8.65303C17.0344 8.74321 16.961 8.8163 16.8706 8.8163H15.5602C15.4698 8.8163 15.3964 8.74321 15.3964 8.65303C15.3965 8.56289 15.4698 8.48976 15.5602 8.48976ZM14.9051 6.5306C14.9955 6.5306 15.0689 6.60369 15.0689 6.69387C15.0689 6.78405 14.9955 6.85715 14.9051 6.85715C14.8146 6.85715 14.7413 6.78405 14.7413 6.69387C14.7413 6.60369 14.8146 6.5306 14.9051 6.5306ZM14.9051 7.18365C14.9955 7.18365 15.0689 7.25675 15.0689 7.34693C15.0689 7.43711 14.9955 7.5102 14.9051 7.5102C14.8146 7.5102 14.7413 7.43711 14.7413 7.34693C14.7413 7.25675 14.8146 7.18365 14.9051 7.18365ZM14.9051 7.83671C14.9955 7.83671 15.0689 7.9098 15.0689 7.99998C15.0689 8.09016 14.9955 8.16325 14.9051 8.16325C14.8146 8.16325 14.7413 8.09016 14.7413 7.99998C14.7413 7.9098 14.8146 7.83671 14.9051 7.83671ZM14.9051 8.48976C14.9955 8.48976 15.0689 8.56285 15.0689 8.65303C15.0689 8.74321 14.9955 8.8163 14.9051 8.8163C14.8146 8.8163 14.7413 8.74321 14.7413 8.65303C14.7413 8.56289 14.8146 8.48976 14.9051 8.48976ZM14.2499 6.5306C14.3404 6.5306 14.4137 6.60369 14.4137 6.69387C14.4137 6.78405 14.3404 6.85715 14.2499 6.85715C14.1594 6.85715 14.0861 6.78405 14.0861 6.69387C14.0861 6.60369 14.1594 6.5306 14.2499 6.5306ZM14.2499 7.18365C14.3404 7.18365 14.4137 7.25675 14.4137 7.34693C14.4137 7.43711 14.3404 7.5102 14.2499 7.5102C14.1594 7.5102 14.0861 7.43711 14.0861 7.34693C14.0861 7.25675 14.1594 7.18365 14.2499 7.18365ZM14.2499 7.83671C14.3404 7.83671 14.4137 7.9098 14.4137 7.99998C14.4137 8.09016 14.3404 8.16325 14.2499 8.16325C14.1594 8.16325 14.0861 8.09016 14.0861 7.99998C14.0861 7.9098 14.1594 7.83671 14.2499 7.83671ZM14.2499 8.48976C14.3404 8.48976 14.4137 8.56285 14.4137 8.65303C14.4137 8.74321 14.3404 8.8163 14.2499 8.8163C14.1594 8.8163 14.0861 8.74321 14.0861 8.65303C14.0861 8.56289 14.1594 8.48976 14.2499 8.48976Z" fill="#030104"/>
<path d="M17.3621 3.91837H13.7587V6.20407H17.3621V3.91837ZM14.5776 5.87756H14.25C14.1596 5.87756 14.0862 5.80447 14.0862 5.71429C14.0862 5.62411 14.1596 5.55102 14.25 5.55102H14.5776C14.6681 5.55102 14.7414 5.62411 14.7414 5.71429C14.7414 5.80447 14.6681 5.87756 14.5776 5.87756ZM14.5776 5.22451H14.25C14.1596 5.22451 14.0862 5.15142 14.0862 5.06124C14.0862 4.97105 14.1596 4.89796 14.25 4.89796H14.5776C14.6681 4.89796 14.7414 4.97105 14.7414 5.06124C14.7414 5.15142 14.6681 5.22451 14.5776 5.22451ZM14.5776 4.57142H14.25C14.1596 4.57142 14.0862 4.49833 14.0862 4.40815C14.0862 4.31796 14.1596 4.24487 14.25 4.24487H14.5776C14.6681 4.24487 14.7414 4.31796 14.7414 4.40815C14.7414 4.49833 14.6681 4.57142 14.5776 4.57142ZM16.8707 5.87756H15.2328C15.1423 5.87756 15.069 5.80447 15.069 5.71429C15.069 5.62411 15.1423 5.55102 15.2328 5.55102H16.8707C16.9612 5.55102 17.0345 5.62411 17.0345 5.71429C17.0345 5.80447 16.9612 5.87756 16.8707 5.87756ZM16.8707 5.22451H15.2328C15.1423 5.22451 15.069 5.15142 15.069 5.06124C15.069 4.97105 15.1423 4.89796 15.2328 4.89796H16.8707C16.9612 4.89796 17.0345 4.97105 17.0345 5.06124C17.0345 5.15142 16.9612 5.22451 16.8707 5.22451ZM16.8707 4.57142H15.2328C15.1423 4.57142 15.069 4.49833 15.069 4.40815C15.069 4.31796 15.1423 4.24487 15.2328 4.24487H16.8707C16.9612 4.24487 17.0345 4.31796 17.0345 4.40815C17.0345 4.49833 16.9612 4.57142 16.8707 4.57142Z" fill="#030104"/>
<path d="M16.8707 1.95921H14.9052C14.9956 1.95921 15.069 2.0323 15.069 2.12248C15.069 2.21266 14.9956 2.28575 14.9052 2.28575H16.8707C16.9612 2.28575 17.0345 2.21266 17.0345 2.12248C17.0345 2.0323 16.9611 1.95921 16.8707 1.95921Z" fill="#030104"/>
<path d="M14.4138 2.12244C14.4138 2.03226 14.4871 1.95917 14.5776 1.95917H14.25C14.1595 1.95917 14.0862 2.03226 14.0862 2.12244C14.0862 2.21262 14.1595 2.28571 14.25 2.28571H14.5776C14.4871 2.28571 14.4138 2.21262 14.4138 2.12244Z" fill="#030104"/>
<path d="M16.8708 3.26531H15.5604C15.6509 3.26531 15.7242 3.3384 15.7242 3.42858C15.7242 3.51877 15.6509 3.59186 15.5604 3.59186H16.8708C16.9612 3.59186 17.0346 3.51877 17.0346 3.42858C17.0346 3.3384 16.9612 3.26531 16.8708 3.26531Z" fill="#030104"/>
<path d="M15.0689 3.42858C15.0689 3.3384 15.1423 3.26531 15.2328 3.26531H14.25C14.1595 3.26531 14.0862 3.3384 14.0862 3.42858C14.0862 3.51877 14.1595 3.59186 14.25 3.59186H15.2328C15.1423 3.59186 15.0689 3.51873 15.0689 3.42858Z" fill="#030104"/>
<path d="M16.8707 4.2449H15.2328C15.1423 4.2449 15.069 4.318 15.069 4.40818C15.069 4.49836 15.1423 4.57145 15.2328 4.57145H16.8707C16.9612 4.57145 17.0345 4.49836 17.0345 4.40818C17.0345 4.318 16.9611 4.2449 16.8707 4.2449Z" fill="#030104"/>
<path d="M16.0517 2.77552C16.0517 2.68534 16.125 2.61224 16.2155 2.61224H14.25C14.1595 2.61224 14.0862 2.68534 14.0862 2.77552C14.0862 2.8657 14.1595 2.93879 14.25 2.93879H16.2155C16.125 2.93875 16.0517 2.86566 16.0517 2.77552Z" fill="#030104"/>
<path d="M16.8707 2.61224H16.5431C16.6336 2.61224 16.7069 2.68534 16.7069 2.77552C16.7069 2.8657 16.6336 2.93879 16.5431 2.93879H16.8707C16.9612 2.93879 17.0345 2.8657 17.0345 2.77552C17.0345 2.68534 16.9611 2.61224 16.8707 2.61224Z" fill="#030104"/>
<path d="M15.0689 2.12244C15.0689 2.03226 14.9956 1.95917 14.9051 1.95917H14.5775C14.487 1.95917 14.4137 2.03226 14.4137 2.12244C14.4137 2.21262 14.487 2.28571 14.5775 2.28571H14.9051C14.9956 2.28571 15.0689 2.21262 15.0689 2.12244Z" fill="#030104"/>
<path d="M15.7242 3.42858C15.7242 3.3384 15.6508 3.26531 15.5604 3.26531H15.2328C15.1423 3.26531 15.069 3.3384 15.069 3.42858C15.069 3.51877 15.1423 3.59186 15.2328 3.59186H15.5604C15.6508 3.59186 15.7242 3.51873 15.7242 3.42858Z" fill="#030104"/>
<path d="M14.5776 4.2449H14.25C14.1595 4.2449 14.0862 4.318 14.0862 4.40818C14.0862 4.49836 14.1595 4.57145 14.25 4.57145H14.5776C14.6681 4.57145 14.7414 4.49836 14.7414 4.40818C14.7414 4.318 14.668 4.2449 14.5776 4.2449Z" fill="#030104"/>
<path d="M16.8707 4.89796H15.2328C15.1423 4.89796 15.069 4.97105 15.069 5.06123C15.069 5.15141 15.1423 5.2245 15.2328 5.2245H16.8707C16.9612 5.2245 17.0345 5.15141 17.0345 5.06123C17.0345 4.97105 16.9611 4.89796 16.8707 4.89796Z" fill="#030104"/>
<path d="M14.5776 4.89796H14.25C14.1595 4.89796 14.0862 4.97105 14.0862 5.06123C14.0862 5.15141 14.1595 5.2245 14.25 5.2245H14.5776C14.6681 5.2245 14.7414 5.15141 14.7414 5.06123C14.7414 4.97105 14.668 4.89796 14.5776 4.89796Z" fill="#030104"/>
<path d="M16.8707 5.551H15.2328C15.1423 5.551 15.069 5.62409 15.069 5.71428C15.069 5.80446 15.1423 5.87755 15.2328 5.87755H16.8707C16.9612 5.87755 17.0345 5.80446 17.0345 5.71428C17.0345 5.62409 16.9611 5.551 16.8707 5.551Z" fill="#030104"/>
<path d="M14.5776 5.551H14.25C14.1595 5.551 14.0862 5.62409 14.0862 5.71428C14.0862 5.80446 14.1595 5.87755 14.25 5.87755H14.5776C14.6681 5.87755 14.7414 5.80446 14.7414 5.71428C14.7414 5.62409 14.668 5.551 14.5776 5.551Z" fill="#030104"/>
<path d="M14.25 7.51019C14.3405 7.51019 14.4138 7.4371 14.4138 7.34692C14.4138 7.25674 14.3405 7.18365 14.25 7.18365C14.1595 7.18365 14.0862 7.25674 14.0862 7.34692C14.0862 7.43706 14.1595 7.51019 14.25 7.51019Z" fill="#030104"/>
<path d="M14.25 6.8571C14.3405 6.8571 14.4138 6.78401 14.4138 6.69383C14.4138 6.60365 14.3405 6.53056 14.25 6.53056C14.1595 6.53056 14.0862 6.60365 14.0862 6.69383C14.0862 6.78401 14.1595 6.8571 14.25 6.8571Z" fill="#030104"/>
<path d="M14.25 8.8163C14.3405 8.8163 14.4138 8.74321 14.4138 8.65303C14.4138 8.56285 14.3405 8.48975 14.25 8.48975C14.1595 8.48975 14.0862 8.56285 14.0862 8.65303C14.0862 8.74321 14.1595 8.8163 14.25 8.8163Z" fill="#030104"/>
<path d="M14.25 8.16325C14.3405 8.16325 14.4138 8.09015 14.4138 7.99997C14.4138 7.90979 14.3405 7.8367 14.25 7.8367C14.1595 7.8367 14.0862 7.90979 14.0862 7.99997C14.0862 8.09015 14.1595 8.16325 14.25 8.16325Z" fill="#030104"/>
<path d="M14.9051 7.5102C14.9956 7.5102 15.0689 7.43711 15.0689 7.34693C15.0689 7.25675 14.9956 7.18365 14.9051 7.18365C14.8147 7.18365 14.7413 7.25675 14.7413 7.34693C14.7413 7.43707 14.8147 7.5102 14.9051 7.5102Z" fill="#030104"/>
<path d="M14.9051 6.85711C14.9956 6.85711 15.0689 6.78402 15.0689 6.69384C15.0689 6.60365 14.9956 6.53056 14.9051 6.53056C14.8147 6.53056 14.7413 6.60365 14.7413 6.69384C14.7413 6.78402 14.8147 6.85711 14.9051 6.85711Z" fill="#030104"/>
<path d="M14.9051 8.81631C14.9956 8.81631 15.0689 8.74321 15.0689 8.65303C15.0689 8.56285 14.9956 8.48976 14.9051 8.48976C14.8147 8.48976 14.7413 8.56285 14.7413 8.65303C14.7413 8.74321 14.8147 8.81631 14.9051 8.81631Z" fill="#030104"/>
<path d="M14.9051 8.16325C14.9956 8.16325 15.0689 8.09016 15.0689 7.99998C15.0689 7.9098 14.9956 7.83671 14.9051 7.83671C14.8147 7.83671 14.7413 7.9098 14.7413 7.99998C14.7413 8.09016 14.8147 8.16325 14.9051 8.16325Z" fill="#030104"/>
<path d="M15.5603 7.5102H16.8706C16.9611 7.5102 17.0344 7.43711 17.0344 7.34693C17.0344 7.25675 16.9611 7.18365 16.8706 7.18365H15.5603C15.4698 7.18365 15.3965 7.25675 15.3965 7.34693C15.3965 7.43707 15.4698 7.5102 15.5603 7.5102Z" fill="#030104"/>
<path d="M15.5603 6.85711H16.8706C16.9611 6.85711 17.0344 6.78402 17.0344 6.69384C17.0344 6.60365 16.9611 6.53056 16.8706 6.53056H15.5603C15.4698 6.53056 15.3965 6.60365 15.3965 6.69384C15.3965 6.78402 15.4698 6.85711 15.5603 6.85711Z" fill="#030104"/>
<path d="M15.5603 8.81631H16.8706C16.9611 8.81631 17.0344 8.74321 17.0344 8.65303C17.0344 8.56285 16.9611 8.48976 16.8706 8.48976H15.5603C15.4698 8.48976 15.3965 8.56285 15.3965 8.65303C15.3965 8.74321 15.4698 8.81631 15.5603 8.81631Z" fill="#030104"/>
<path d="M15.5603 8.16325H16.8706C16.9611 8.16325 17.0344 8.09016 17.0344 7.99998C17.0344 7.9098 16.9611 7.83671 16.8706 7.83671H15.5603C15.4698 7.83671 15.3965 7.9098 15.3965 7.99998C15.3965 8.09016 15.4698 8.16325 15.5603 8.16325Z" fill="#030104"/>
<path d="M16.707 2.77552C16.707 2.68534 16.6336 2.61224 16.5432 2.61224H16.2156C16.1251 2.61224 16.0518 2.68534 16.0518 2.77552C16.0518 2.8657 16.1251 2.93879 16.2156 2.93879H16.5432C16.6336 2.93875 16.707 2.86566 16.707 2.77552Z" fill="#030104"/>
<path d="M4.91375 5.87754H7.37065V5.22449H5.24131V2.28573H8.18958V4.40817C8.28012 4.40817 8.35338 4.48118 8.35338 4.57144C8.35338 4.66169 8.28012 4.73471 8.18958 4.73471V5.22449H7.69821V5.87754H8.51718C8.52185 5.87754 8.52638 5.87706 8.53102 5.87684L8.53362 5.68061C8.5351 5.56809 8.66873 5.50964 8.75282 5.5847L8.82856 5.65231C8.83899 5.62039 8.84482 5.5864 8.84482 5.551V4.73467C8.75427 4.73467 8.68102 4.66166 8.68102 4.5714C8.68102 4.48115 8.75427 4.40813 8.84482 4.40813V1.95919C8.84482 1.77872 8.69812 1.63264 8.51721 1.63264H4.91378C4.73288 1.63264 4.58618 1.77868 4.58618 1.95919V5.551C4.58614 5.73151 4.73284 5.87754 4.91375 5.87754Z" fill="#030104"/>
<path d="M7.53441 7.34694C7.62495 7.34694 7.69821 7.27392 7.69821 7.18367V6.53061C7.69821 6.44036 7.62495 6.36734 7.53441 6.36734C7.44386 6.36734 7.37061 6.44036 7.37061 6.53061V7.18367C7.37064 7.27392 7.4439 7.34694 7.53441 7.34694Z" fill="#030104"/>
<path d="M11.4654 9.3061H12.1206C12.2111 9.3061 12.2844 9.23308 12.2844 9.14283C12.2844 9.05257 12.2111 8.97955 12.1206 8.97955H11.4654C11.3749 8.97955 11.3016 9.05257 11.3016 9.14283C11.3016 9.23308 11.3749 9.3061 11.4654 9.3061Z" fill="#030104"/>
<path d="M12.1206 7.67345C12.03 7.67345 11.9568 7.74646 11.9568 7.83672V8.48977C11.9568 8.58003 12.03 8.65304 12.1206 8.65304C12.2111 8.65304 12.2844 8.58003 12.2844 8.48977V7.83672C12.2844 7.74646 12.2111 7.67345 12.1206 7.67345Z" fill="#030104"/>
<path d="M11.4654 4.73469H12.1206C12.2111 4.73469 12.2844 4.66167 12.2844 4.57141C12.2844 4.48116 12.2111 4.40814 12.1206 4.40814H11.4654C11.3749 4.40814 11.3016 4.48116 11.3016 4.57141C11.3017 4.66167 11.3749 4.73469 11.4654 4.73469Z" fill="#030104"/>
<path d="M12.1206 5.06123C12.03 5.06123 11.9568 5.13425 11.9568 5.22451V5.87756C11.9568 5.96781 12.03 6.04083 12.1206 6.04083C12.2111 6.04083 12.2844 5.96781 12.2844 5.87756V5.22451C12.2844 5.13425 12.2111 5.06123 12.1206 5.06123Z" fill="#030104"/>
<path d="M9.49987 8.97958H8.84471C8.75416 8.97958 8.68091 9.0526 8.68091 9.14286C8.68091 9.23311 8.75416 9.30613 8.84471 9.30613H9.49987C9.59042 9.30613 9.66368 9.23311 9.66368 9.14286C9.66368 9.0526 9.59042 8.97958 9.49987 8.97958Z" fill="#030104"/>
<path d="M7.53441 5.06123C7.44386 5.06123 7.37061 5.13425 7.37061 5.22451V5.87756C7.37061 5.96781 7.44386 6.04083 7.53441 6.04083C7.62495 6.04083 7.69821 5.96781 7.69821 5.87756V5.22451C7.69821 5.13425 7.62495 5.06123 7.53441 5.06123Z" fill="#030104"/>
<path d="M8.18957 8.97958H7.53441C7.44386 8.97958 7.37061 9.0526 7.37061 9.14286C7.37061 9.23311 7.44386 9.30613 7.53441 9.30613H8.18957C8.28012 9.30613 8.35337 9.23311 8.35337 9.14286C8.35337 9.0526 8.28008 8.97958 8.18957 8.97958Z" fill="#030104"/>
<path d="M7.37061 8.48977C7.37061 8.58003 7.44386 8.65304 7.53441 8.65304C7.62495 8.65304 7.69821 8.58003 7.69821 8.48977V7.83672C7.69821 7.74646 7.62495 7.67345 7.53441 7.67345C7.44386 7.67345 7.37061 7.74646 7.37061 7.83672V8.48977Z" fill="#030104"/>
<path d="M12.1206 6.36734C12.03 6.36734 11.9568 6.44036 11.9568 6.53061V7.18367C11.9568 7.27392 12.03 7.34694 12.1206 7.34694C12.2111 7.34694 12.2844 7.27392 12.2844 7.18367V6.53061C12.2844 6.44036 12.2111 6.36734 12.1206 6.36734Z" fill="#030104"/>
<path d="M10.1551 4.73469H10.8103C10.9008 4.73469 10.9741 4.66167 10.9741 4.57141C10.9741 4.48116 10.9008 4.40814 10.8103 4.40814H10.1551C10.0646 4.40814 9.99133 4.48116 9.99133 4.57141C9.99133 4.66167 10.0646 4.73469 10.1551 4.73469Z" fill="#030104"/>
<path d="M7.37158 4.57141C7.37158 4.66166 7.44484 4.73468 7.53538 4.73468H8.19055C8.2811 4.73468 8.35435 4.66166 8.35435 4.57141C8.35435 4.48115 8.2811 4.40813 8.19055 4.40813H7.53538C7.44484 4.40817 7.37158 4.48119 7.37158 4.57141Z" fill="#030104"/>
<path d="M10.1551 9.3061H10.8103C10.9008 9.3061 10.9741 9.23308 10.9741 9.14283C10.9741 9.05257 10.9008 8.97955 10.8103 8.97955H10.1551C10.0646 8.97955 9.99133 9.05257 9.99133 9.14283C9.99133 9.23308 10.0646 9.3061 10.1551 9.3061Z" fill="#030104"/>
<path d="M8.68091 4.57141C8.68091 4.66167 8.75416 4.73469 8.84471 4.73469H9.49987C9.59042 4.73469 9.66368 4.66167 9.66368 4.57141C9.66368 4.48116 9.59042 4.40814 9.49987 4.40814H8.84471C8.75416 4.40818 8.68091 4.4812 8.68091 4.57141Z" fill="#030104"/>
<path d="M8.53359 5.68062L8.53099 5.87685L8.51722 6.93231C8.516 7.02764 8.61397 7.09237 8.70155 7.05401L9.0274 6.91145L9.31838 7.57205C9.34539 7.63327 9.4054 7.66963 9.46856 7.66963C9.49045 7.66963 9.51287 7.66519 9.53428 7.6559C9.617 7.61954 9.6547 7.52326 9.61844 7.4407L9.32751 6.78017L9.65325 6.63765C9.74079 6.59933 9.75935 6.48366 9.68814 6.42001L8.8285 5.65232L8.75276 5.5847C8.6687 5.50961 8.53504 5.5681 8.53359 5.68062Z" fill="#030104"/>
</svg>
