<svg width="21" height="21" viewBox="0 0 21 21" fill="none" xmlns="http://www.w3.org/2000/svg">
<path d="M10.5 21C16.299 21 21 16.299 21 10.5C21 4.70101 16.299 0 10.5 0C4.70101 0 0 4.70101 0 10.5C0 16.299 4.70101 21 10.5 21Z" fill="black"/>
<path d="M10.8844 3.61713C7.29622 3.61713 4.38599 6.52736 4.38599 10.1156C4.38599 11.24 4.67122 12.2982 5.17555 13.2201L4.38599 16.614L7.77988 15.8244C8.70173 16.3287 9.76 16.614 10.8844 16.614C14.4726 16.614 17.3828 13.7037 17.3828 10.1156C17.3828 6.52736 14.4726 3.61713 10.8844 3.61713Z" fill="white"/>
<path d="M11.2276 11.5872H10.0164V10.9341C10.0164 10.6488 10.0495 10.4339 10.1197 10.2974C10.1859 10.1569 10.3347 9.97501 10.5662 9.74765L11.3475 8.96635C11.5128 8.78859 11.5955 8.56536 11.5955 8.3008C11.5955 8.03623 11.5087 7.81713 11.3392 7.64351C11.1656 7.46989 10.9465 7.37895 10.6737 7.37895C10.4008 7.37895 10.1776 7.46162 9.99158 7.63111C9.80969 7.8006 9.70221 8.02383 9.67328 8.3008H8.37524C8.44552 7.66418 8.69355 7.16812 9.11934 6.80847C9.54513 6.44883 10.0743 6.26694 10.7109 6.26694C11.3475 6.26694 11.8642 6.44056 12.2652 6.7878C12.6662 7.13505 12.8646 7.61871 12.8646 8.23879C12.8646 8.66871 12.7489 9.02422 12.5132 9.30946C12.3768 9.47894 12.2735 9.60296 12.2032 9.67324C12.1329 9.74351 12.0378 9.83446 11.918 9.94607C11.7981 10.0577 11.6989 10.1528 11.6162 10.2354C11.5335 10.3181 11.4674 10.3884 11.4178 10.4463C11.2896 10.6034 11.2235 10.8266 11.2235 11.1118V11.5872H11.2276V11.5872ZM10.6447 13.9683C10.4215 13.9683 10.2272 13.8898 10.0619 13.7368C9.8965 13.5839 9.81383 13.3978 9.81383 13.1787C9.81383 12.9597 9.89237 12.7736 10.0536 12.6165C10.2148 12.4595 10.4091 12.3809 10.6323 12.3809C10.8556 12.3809 11.0498 12.4595 11.2152 12.6124C11.3806 12.7654 11.4591 12.9514 11.4591 13.1705C11.4591 13.3896 11.3806 13.5756 11.2193 13.7327C11.0623 13.8898 10.868 13.9683 10.6447 13.9683Z" fill="black"/>
</svg>
