<svg width="19" height="19" viewBox="0 0 19 19" fill="none" xmlns="http://www.w3.org/2000/svg">
<path d="M9.50005 4.74118C6.87598 4.74118 4.74121 6.87637 4.74121 9.50044C4.74121 12.1245 6.87598 14.2597 9.50005 14.2597C12.1237 14.2597 14.2589 12.1249 14.2589 9.50044C14.2589 6.87595 12.1237 4.74118 9.50005 4.74118Z" fill="black"/>
<path d="M9.49995 3.34225C8.98709 3.34225 8.57141 2.92657 8.57141 2.41413V0.928543C8.57141 0.415678 8.98709 0 9.49995 0C10.0128 0 10.4285 0.415678 10.4285 0.928543V2.41413C10.4285 2.92657 10.0124 3.34225 9.49995 3.34225Z" fill="black"/>
<path d="M9.50008 15.6573C8.98721 15.6573 8.57153 16.073 8.57153 16.5859V18.071C8.57153 18.5843 8.98721 19 9.50008 19C10.0129 19 10.4286 18.5843 10.4286 18.071V16.5859C10.4286 16.073 10.0125 15.6573 9.50008 15.6573Z" fill="black"/>
<path d="M13.8537 5.14591C13.4915 4.78325 13.4915 4.19549 13.8537 3.83283L14.9043 2.78227C15.2665 2.42003 15.8547 2.42003 16.2174 2.78227C16.58 3.14494 16.58 3.73312 16.2174 4.09536L15.1668 5.14591C14.8046 5.50858 14.2168 5.50858 13.8537 5.14591Z" fill="black"/>
<path d="M5.14598 13.8545C4.78331 13.4914 4.19556 13.4914 3.83289 13.8545L2.78234 14.9047C2.42009 15.2669 2.41967 15.8555 2.78234 16.2177C3.14501 16.58 3.73318 16.58 4.09543 16.2177L5.14598 15.1668C5.50865 14.8045 5.50865 14.2164 5.14598 13.8545Z" fill="black"/>
<path d="M15.6573 9.49998C15.6573 8.98712 16.073 8.57144 16.5859 8.57144H18.0715C18.5843 8.57144 19 8.98712 19 9.49998C19 10.0128 18.5843 10.4281 18.0715 10.4281H16.5859C16.073 10.4281 15.6573 10.0128 15.6573 9.49998Z" fill="black"/>
<path d="M3.34225 9.49998C3.34225 8.98712 2.92657 8.57144 2.41371 8.57144H0.928543C0.415678 8.57144 0 8.98712 0 9.49998C0 10.0128 0.415678 10.4281 0.928543 10.4281H2.41413C2.92657 10.4281 3.34225 10.0128 3.34225 9.49998Z" fill="black"/>
<path d="M13.8537 13.8545C14.2163 13.4923 14.8045 13.4923 15.1668 13.8545L16.2173 14.9051C16.58 15.2669 16.58 15.8555 16.2173 16.2177C15.8546 16.58 15.2669 16.58 14.9042 16.2177L13.8537 15.1672C13.491 14.8045 13.491 14.2168 13.8537 13.8545Z" fill="black"/>
<path d="M5.14589 5.1459C5.50856 4.78323 5.50856 4.19548 5.14589 3.83281L4.09534 2.78268C3.73267 2.42001 3.14492 2.42001 2.78225 2.78268C2.41959 3.14493 2.41959 3.7331 2.78225 4.09535L3.83281 5.1459C4.19547 5.50899 4.78323 5.50899 5.14589 5.1459Z" fill="black"/>
</svg>
