<svg width="18" height="16" viewBox="0 0 18 16" fill="none" xmlns="http://www.w3.org/2000/svg">
<path d="M17.6615 15.6632V14.7564C17.6615 14.564 17.5769 14.3826 17.4298 14.2605C16.6131 13.5869 15.7339 13.139 15.5536 13.0502C15.5352 13.0391 15.5205 13.0206 15.5205 12.9984V11.7215C15.6787 11.6142 15.7854 11.4328 15.7854 11.2255V9.90053C15.7854 9.24173 15.2557 8.70507 14.5972 8.70507H14.4537H14.3102C13.6554 8.70507 13.122 9.23803 13.122 9.90053V11.2181C13.122 11.4254 13.2287 11.6068 13.3869 11.7141V12.9947C13.3869 13.0169 13.3758 13.0391 13.3538 13.0465C13.1735 13.1353 12.2943 13.5832 11.4776 14.2568C11.3305 14.3789 11.2459 14.5603 11.2459 14.7527V15.6595" fill="black"/>
<path d="M6.73576 15.6632V14.7564C6.73576 14.564 6.65115 14.3826 6.504 14.2605C5.68733 13.5869 4.80811 13.139 4.62786 13.0502C4.60946 13.0391 4.59475 13.0206 4.59475 12.9984V11.7215C4.75293 11.6142 4.85961 11.4328 4.85961 11.2255V9.90053C4.85961 9.24173 4.32988 8.70507 3.67139 8.70507H3.52792H3.38445C2.72963 8.70507 2.19622 9.23803 2.19622 9.90053V11.2181C2.19622 11.4254 2.3029 11.6068 2.46109 11.7141V12.9947C2.46109 13.0169 2.45005 13.0391 2.42798 13.0465C2.24772 13.1353 1.3685 13.5832 0.551828 14.2568C0.404679 14.3789 0.320068 14.5603 0.320068 14.7527V15.6595" fill="black"/>
<path d="M9.02387 7.65395C8.83994 7.65395 8.68911 7.80569 8.68911 7.99075V10.1152L6.86078 11.1774C6.7026 11.27 6.64742 11.4735 6.73939 11.6364C6.80192 11.7437 6.91229 11.8029 7.03001 11.8029C7.08519 11.8029 7.14405 11.7881 7.19555 11.7585L9.02387 10.6963L10.8522 11.7585C10.9037 11.7881 10.9626 11.8029 11.0177 11.8029C11.1318 11.8029 11.2458 11.7437 11.3084 11.6364C11.4003 11.4772 11.3451 11.27 11.187 11.1774L9.35864 10.1152V7.99075C9.35496 7.80569 9.20781 7.65395 9.02387 7.65395Z" fill="black"/>
<path d="M7.59658 4.45987C7.25814 4.63752 6.51136 5.05575 5.80872 5.63312C5.58432 5.81818 5.45557 6.09577 5.45557 6.38816V7.29493C5.45557 7.47999 5.60639 7.63174 5.79033 7.63174C5.97427 7.63174 6.12509 7.47999 6.12509 7.29493V6.38816C6.12509 6.29563 6.16556 6.2105 6.23546 6.15128C7.02638 5.49988 7.88352 5.06315 8.04539 4.98173C8.1815 4.91511 8.26611 4.77816 8.26611 4.62642V3.34953C8.26611 3.23849 8.21093 3.13116 8.11896 3.07194C8.04539 3.02383 8.00124 2.9424 8.00124 2.85357V1.52857C8.00124 1.05482 8.38383 0.669905 8.85471 0.669905H9.13797C9.60885 0.669905 9.99143 1.05482 9.99143 1.52857V2.85357C9.99143 2.9424 9.94729 3.02383 9.87372 3.07194C9.78175 3.13486 9.72657 3.23849 9.72657 3.34953V4.63012C9.72657 4.78186 9.81118 4.91881 9.94729 4.98543C10.1128 5.06685 10.9663 5.49988 11.7572 6.15498C11.8271 6.2142 11.8676 6.29933 11.8676 6.39186V7.29863C11.8676 7.48369 12.0184 7.63544 12.2023 7.63544C12.3863 7.63544 12.5371 7.48369 12.5371 7.29863V6.39186C12.5371 6.09947 12.4084 5.82188 12.184 5.63683C11.485 5.05945 10.7345 4.63752 10.3961 4.46357V3.50867C10.5653 3.33472 10.661 3.10155 10.661 2.85727V1.52857C10.661 0.68471 9.9804 0 9.14165 0H8.85839C8.01964 0 7.33907 0.68471 7.33907 1.52857V2.85357C7.33907 3.10155 7.43472 3.33472 7.60394 3.50497V4.45987H7.59658Z" fill="black"/>
<path d="M3.39178 9.03447H3.67505C4.14592 9.03447 4.52851 9.41938 4.52851 9.89313V11.2181C4.52851 11.307 4.48437 11.3884 4.41079 11.4365C4.31882 11.4994 4.26364 11.6031 4.26364 11.7141V12.9947C4.26364 13.1464 4.34825 13.2834 4.48437 13.35C4.64991 13.4314 5.50337 13.8644 6.2943 14.5195C6.36419 14.5788 6.40466 14.6639 6.40466 14.7564V15.6632C6.40466 15.8483 6.55549 16 6.73942 16C6.92336 16 7.07419 15.8483 7.07419 15.6632V14.7564C7.07419 14.464 6.94543 14.1864 6.72103 14.0014C6.02207 13.424 5.27161 13.0021 4.93317 12.8281V11.8732C5.10239 11.6993 5.19804 11.4661 5.19804 11.2218V9.89683C5.19804 9.05297 4.51747 8.36826 3.67872 8.36826H3.39546C2.55671 8.36826 1.87615 9.05297 1.87615 9.89683V11.2181C1.87615 11.4661 1.9718 11.6993 2.14102 11.8695V12.8244C1.80258 13.0021 1.05579 13.4203 0.353158 13.9977C0.128755 14.1827 0 14.4603 0 14.7527V15.6595C0 15.8446 0.150828 15.9963 0.334764 15.9963C0.5187 15.9963 0.669528 15.8446 0.669528 15.6595V14.7527C0.669528 14.6602 0.709994 14.5751 0.77989 14.5158C1.57082 13.8644 2.42796 13.4277 2.58982 13.3463C2.72594 13.2797 2.81055 13.1427 2.81055 12.991V11.7141C2.81055 11.6031 2.75537 11.4957 2.6634 11.4365C2.58982 11.3884 2.54568 11.307 2.54568 11.2181V9.89313C2.53832 9.41938 2.92091 9.03447 3.39178 9.03447Z" fill="black"/>
<path d="M11.2716 13.9977C11.0472 14.1827 10.9185 14.4603 10.9185 14.7527V15.6595C10.9185 15.8446 11.0693 15.9963 11.2532 15.9963C11.4372 15.9963 11.588 15.8446 11.588 15.6595V14.7527C11.588 14.6602 11.6285 14.5751 11.6983 14.5158C12.4893 13.8644 13.3464 13.4277 13.5083 13.3463C13.6444 13.2797 13.729 13.1427 13.729 12.991V11.7141C13.729 11.6031 13.6738 11.4957 13.5819 11.4365C13.5083 11.3884 13.4641 11.307 13.4641 11.2181V9.89313C13.4641 9.41938 13.8467 9.03447 14.3176 9.03447H14.6009C15.0717 9.03447 15.4543 9.41938 15.4543 9.89313V11.2181C15.4543 11.307 15.4102 11.3884 15.3366 11.4365C15.2446 11.4994 15.1895 11.6031 15.1895 11.7141V12.9947C15.1895 13.1464 15.2741 13.2834 15.4102 13.35C15.5757 13.4314 16.4292 13.8644 17.2201 14.5195C17.29 14.5788 17.3305 14.6639 17.3305 14.7564V15.6632C17.3305 15.8483 17.4813 16 17.6652 16C17.8492 16 18 15.8483 18 15.6632V14.7564C18 14.464 17.8712 14.1864 17.6468 14.0014C16.9479 13.424 16.1974 13.0021 15.859 12.8281V11.8732C16.0282 11.6993 16.1239 11.4661 16.1239 11.2218V9.89683C16.1239 9.05297 15.4433 8.36826 14.6045 8.36826H14.3213C13.4825 8.36826 12.802 9.05297 12.802 9.89683V11.2181C12.802 11.4661 12.8976 11.6993 13.0668 11.8695V12.8244C12.721 13.0021 11.9743 13.4203 11.2716 13.9977Z" fill="black"/>
</svg>
